<?xml version="1.0" encoding="UTF-8"?>
<svg enable-background="new 0 0 595.28 841.89" viewBox="0 0 595.28 841.89" xmlns="http://www.w3.org/2000/svg">
 <defs>
  <linearGradient id="c" x2="0" y1="294.23" y2="74.652" gradientUnits="userSpaceOnUse">
   <stop stop-color="#ccc" offset="0"/>
   <stop stop-color="#cbcbcc" offset=".0104"/>
   <stop stop-color="#b3bfc5" offset=".2222"/>
   <stop stop-color="#a2b6c1" offset=".4468"/>
   <stop stop-color="#98b1be" offset=".6932"/>
   <stop stop-color="#95afbd" offset="1"/>
  </linearGradient>
  <linearGradient id="b" x1="37.646" x2="316.16" gradientUnits="userSpaceOnUse">
   <stop stop-color="#ccc" offset="0"/>
   <stop stop-color="#cbcbcc" offset=".0104"/>
   <stop stop-color="#b3bfc5" offset=".2222"/>
   <stop stop-color="#a2b6c1" offset=".4468"/>
   <stop stop-color="#98b1be" offset=".6932"/>
   <stop stop-color="#95afbd" offset="1"/>
  </linearGradient>
  <linearGradient id="a" x1="258.53" x2="486.9" y1="255.84" y2="513.69" gradientUnits="userSpaceOnUse">
   <stop stop-color="#ccc" offset="0"/>
   <stop stop-color="#cbcbcc" offset=".0104"/>
   <stop stop-color="#b3bfc5" offset=".2222"/>
   <stop stop-color="#a2b6c1" offset=".4468"/>
   <stop stop-color="#98b1be" offset=".6932"/>
   <stop stop-color="#95afbd" offset="1"/>
  </linearGradient>
 </defs>
 <path d="m432.117,155.414c-1.36-4.194-5.861-6.488-10.055-5.131l-36.521,11.873 15.747-30.909-.017-.008v-.004c1.995-3.912.439-8.707-3.477-10.703s-8.702-.436-10.702,3.477l-.02-.009-22.993,45.124-13.18,4.281c-.194-6.824-5.819-12.345-12.689-12.345h-9.271v-17.46l35.819-35.812-.017-.017c3.111-3.111 3.111-8.143 0-11.254-3.103-3.107-8.143-3.107-11.25,0l-.021-.008-24.532,24.524 .004-38.408c0-4.401-3.576-7.973-7.981-7.973s-7.977,3.571-7.977,7.973v38.404l-24.533-24.52-.021.008c-3.103-3.107-8.143-3.107-11.25,0s-3.107,8.143-.002,11.254l-.012.017 35.818,35.812v17.46h-9.222c-6.994,0-12.714,5.72-12.714,12.71 0-.116.013-.232.021-.344l-13.223-4.293-22.992-45.133-.019.008c-2-3.92-6.784-5.476-10.7-3.477s-5.478,6.787-3.482,10.698l.004.004-.019.008 15.747,30.913-36.527-11.873c-4.192-1.356-8.693.938-10.053,5.131s.927,8.691 5.123,10.056l36.523,11.864-30.906,15.747 .012.025-.008.004c-3.912,1.991-5.471,6.774-3.476,10.698 1.998,3.912 6.787,5.472 10.702,3.477l.013.017 45.13-22.994 18.132,5.895v18.016c0,2.809.934,5.397 2.48,7.496h-.004l-7.193,9.897-50.027,7.923 .004.021c-4.339.688-7.301,4.766-6.61,9.101s4.762,7.305 9.102,6.621h.002l.004.025 34.265-5.434-22.577,31.074c-2.591,3.563-1.801,8.554 1.769,11.146 3.565,2.593 8.554,1.8 11.146-1.763l22.575-31.079 5.426,34.269 .021-.004c.684,4.339 4.762,7.305 9.105,6.621 4.339-.697 7.301-4.766 6.612-9.105l.017-.008-7.915-50.023 10.213-14.059h22.998l10.217,14.067-7.927,50.019 .017.004c-.681,4.339 2.281,8.413 6.62,9.105s8.417-2.281 9.109-6.616v-.004l.017.004 5.426-34.269 22.575,31.079c2.593,3.563 7.578,4.355 11.146,1.763 3.563-2.592 4.355-7.583 1.767-11.146l-22.57-31.066 34.26,5.426 .005-.025c4.343.685 8.416-2.277 9.109-6.621s-2.277-8.404-6.621-9.093l.009-.029-50.027-7.923-7.173-9.869c1.564-2.107 2.502-4.712 2.502-7.525v-18.028l18.094-5.882 45.125,23.002 .012-.025c3.916,1.999 8.707.444 10.698-3.477 2-3.92.44-8.707-3.476-10.698l.017-.025-30.921-15.75 36.529-11.864c4.186-1.362 6.477-5.863 5.115-10.056zm-137.662,61.418c.004.004.008.013.012.017s-.008-.013-.012-.017zm3.451,2.655 .149.066c-.049-.025-.099-.041-.149-.066zm1.244.56c.116.046.241.096.357.133l-.357-.133zm1.32.432 .44.12-.44-.12zm1.431.294c.145.029.277.054.419.066-.141-.012-.274-.037-.419-.066zm29.888-12.619h-21.604c-3.497,0-6.359-2.858-6.359-6.355v-21.612c0-3.493 2.862-6.351 6.359-6.351h21.604c3.493,0 6.354,2.858 6.354,6.351v21.612c.001,3.497-2.861,6.355-6.354,6.355zm10.661,12.03c.124-.042.24-.091.36-.137-.12.046-.236.096-.36.137zm-2.804.655c.142-.012.282-.037.423-.066-.141.029-.282.054-.423.066zm1.41-.24c.146-.033.291-.083.436-.12-.145.037-.287.086-.436.12zm2.991-1.108c-.05.025-.104.045-.157.079l.157-.079z" fill="url(#c)"/>
 <path d="m315.669,287.327c-1.7-5.231-7.317-8.098-12.553-6.401l-45.595,14.826 19.658-38.587-.021-.004c.002-.008.004-.008.004-.008 2.483-4.887.542-10.881-4.347-13.366-4.891-2.493-10.862-.539-13.361,4.343l-.025-.017-28.699,56.337-16.454,5.347c-.245-8.521-7.27-15.415-15.846-15.415h-11.567v-21.791l44.716-44.718-.021-.012c3.881-3.883 3.881-10.176 0-14.054s-10.167-3.875-14.048,0v.004l-.022-.013-30.625,30.618v-47.945c0-5.5-4.461-9.964-9.958-9.964s-9.96,4.463-9.96,9.964v47.941l-30.626-30.612-.019.013-.002-.004c-3.881-3.875-10.169-3.875-14.048,0s-3.881,10.167-.002,14.054l-.016.012 44.713,44.718v21.791h-11.518c-8.726,0-15.871,7.135-15.871,15.863 0-.141.021-.286.027-.427l-16.501-5.368-28.706-56.337-.027.017c-2.493-4.887-8.469-6.844-13.361-4.343-4.887,2.485-6.83,8.475-4.339,13.354l.004.008-.025.013 19.654,38.591-45.593-14.826c-5.235-1.697-10.854,1.17-12.555,6.401-1.698,5.239 1.164,10.852 6.397,12.557l45.597,14.821-38.583,19.65 .012.025h-.007c-4.884,2.493-6.83,8.471-4.343,13.366 2.498,4.891 8.471,6.824 13.364,4.335l.012.021 56.339-28.697 22.635,7.355v22.496c0,3.497 1.164,6.729 3.101,9.358h-.004l-8.975,12.345-62.458,9.894 .004.033c-5.416.858-9.116,5.948-8.252,11.357 .858,5.422 5.944,9.114 11.362,8.263h.002l.004.025 42.776-6.77-28.185,38.785c-3.234,4.451-2.244,10.674 2.208,13.905s10.68,2.253 13.913-2.194l28.179-38.782 6.776,42.768 .027-.008c.859,5.426 5.947,9.117 11.366,8.259s9.112-5.94 8.255-11.358l.027-.008-9.887-62.456 12.748-17.547h28.716l12.754,17.555-9.9,62.447 .027.008c-.854,5.418 2.841,10.504 8.261,11.358 5.419.858 10.505-2.833 11.366-8.251v-.008l.029.008 6.768-42.776 28.185,38.79c3.233,4.447 9.46,5.43 13.909,2.194 4.455-3.231 5.442-9.454 2.211-13.905l-28.179-38.785 42.768,6.77 .004-.021h.002c5.424.854 10.51-2.846 11.373-8.268 .854-5.409-2.846-10.491-8.259-11.357v-.029l-62.447-9.889-8.95-12.316h-.004c1.947-2.642 3.122-5.886 3.122-9.396v-22.508l22.589-7.342 56.335,28.71 .012-.025c4.887,2.489 10.868.547 13.357-4.343s.543-10.868-4.339-13.366l.017-.021-38.595-19.654 45.597-14.821c5.23-1.704 8.097-7.321 6.396-12.56zm-171.862,76.684c.008,0 .015.008.021.017-.007-.009-.013-.017-.021-.017zm4.316,3.306c.058.029.121.058.185.083-.065-.025-.127-.054-.185-.083zm1.547.701c.149.066.301.116.446.166-.145-.05-.297-.1-.446-.166zm1.649.544c.185.054.365.095.548.137-.183-.042-.364-.084-.548-.137zm1.788.369c.176.025.344.062.522.079-.178-.017-.346-.054-.522-.079zm37.311-15.755h-26.974c-4.364,0-7.936-3.572-7.936-7.944v-26.972c0-4.36 3.571-7.927 7.936-7.927h26.974c4.36,0 7.934,3.567 7.934,7.927v26.972c0,4.372-3.574,7.944-7.934,7.944zm13.31,15.008c.149-.045.301-.099.448-.162-.148.062-.299.116-.448.162zm-3.504.825c.176-.017.353-.054.529-.079-.176.026-.353.063-.529.079zm1.763-.311c.181-.033.363-.083.543-.137-.18.054-.36.104-.543.137zm3.734-1.373-.197.095c.066-.033.134-.066.197-.095z" fill="url(#b)"/>
 <path d="m203.968,462.696c-.625,0-1.255-.05-1.892-.153-5.831-.925-10.018-5.924-10.128-11.631l-.185-.025 .301-2.082 9.765-61.605-11.629-15.996h-26.596l-11.629,15.996 10.039,63.376-.162.05c.031,5.824-4.202,10.973-10.125,11.918-5.994.95-11.437-2.593-13.25-7.989l-.168.021-.344-2.008-5.996-37.835-25.238,34.742c-3.75,5.16-11.611,6.434-16.809,2.658-2.599-1.883-4.31-4.671-4.814-7.848-.502-3.17.259-6.355 2.151-8.956l25.24-34.742-39.912,6.326-.031-.22c-5.838-.091-10.713-4.323-11.627-10.122-.506-3.166.255-6.339 2.139-8.931 1.468-2.024 3.484-3.51 5.805-4.302l-.031-.179 2.06-.353 61.605-9.756 7.622-10.491c-1.732-2.813-2.64-5.995-2.64-9.305v-20.99l-20.389-6.629-57.434,29.261-.095-.187c-5.48,1.676-11.603-.925-14.206-6.023-2.75-5.414-1.002-11.947 3.854-15.315l-.025-.116 1.413-.747 34.125-17.385-40.839-13.273c-6.307-2.045-9.777-8.848-7.73-15.162 1.618-4.974 6.22-8.317 11.445-8.317 1.261,0 2.514.195 3.719.589l40.841,13.27-18.366-36.052 .198-.087c-.705-2.327-.685-4.804.081-7.16 .989-3.057 3.109-5.534 5.967-6.99 5.119-2.622 11.715-.983 15.056,3.484l.16-.07 .956,1.821 28.316,55.574 13.239,4.306c1.533-8.346 8.948-14.751 17.653-14.751h9.443v-18.854l-45.659-45.664 .17-.153c-3.217-4.671-2.75-11.142 1.404-15.294 4.159-4.152 11.196-4.559 15.786-1.037l.093-.054 1.12,1.079 27.085,27.084v-42.938c0-6.637 5.399-12.034 12.034-12.034 6.631,0 12.034,5.396 12.034,12.034l-.002,42.938 28.334-28.333 .13.091c4.582-3.389 11.511-2.929 15.62,1.17 4.152,4.161 4.619,10.624 1.402,15.298l.151.129-1.535,1.568-44.104,44.116v18.854h9.493c8.69,0 16.091,6.396 17.63,14.73l13.212-4.29 29.249-57.403 .179.083c3.348-4.463 9.933-6.106 15.058-3.484 5.332,2.713 7.77,8.898 5.965,14.419l.123.087-.821,1.655-17.383,34.127 40.837-13.27c1.207-.394 2.456-.589 3.717-.589 5.227,0 9.823,3.343 11.44,8.317 2.05,6.313-1.41,13.117-7.72,15.166l-40.843,13.27 36.094,18.385-.116.204c4.505,3.451 6.057,9.74 3.389,14.975-2.062,4.04-6.16,6.566-10.702,6.566-1.22,0-2.443-.195-3.613-.572l-.083.141-1.759-.863-55.569-28.324-20.339,6.612v21.006c0,3.323-.917,6.525-2.667,9.35l7.595,10.445 63.621,10.08-.029.199c5.426,1.854 8.91,7.4 7.985,13.241-.929,5.87-5.911,10.134-11.845,10.134l-.11-.004-.048.128-1.738-.253-37.83-5.986 25.236,34.737c3.901,5.367 2.705,12.904-2.663,16.804-5.192,3.775-13.055,2.502-16.811-2.658l-25.24-34.742-6.307,39.856-.197-.033c-1.62,4.823-6.117,8.145-11.356,8.145zm-7.491-15.236-.291,2c-.674,4.28 2.259,8.313 6.54,8.993 4.345.701 8.321-2.294 8.996-6.538l7.581-47.716 31.122,42.838c2.464,3.389 7.616,4.219 11.02,1.751 3.52-2.56 4.304-7.505 1.747-11.026l-31.114-42.834 47.709,7.533c4.428.73 8.332-2.286 9.003-6.533 .672-4.285-2.256-8.309-6.538-8.994l-2.014-.319 .002-.025-61.28-9.707-10.352-14.245 .906-1.22c1.775-2.41 2.713-5.227 2.713-8.164v-24.014l24.835-8.068 57.115,29.07c1.116.573 2.314.859 3.559.859 2.975,0 5.662-1.647 7.011-4.293 1.97-3.858.427-8.607-3.439-10.578l-1.949-.996 .017-.024-41.101-20.937 50.359-16.36c4.136-1.348 6.404-5.803 5.061-9.943-1.319-4.048-5.845-6.405-9.939-5.069l-50.351,16.36 21.907-43.046c1.968-3.87.427-8.612-3.437-10.586-3.795-1.937-8.655-.311-10.571,3.439l-.936,1.83-.025-.008-28.154,55.262-19.905,6.467-.081-2.767c-.209-7.388-6.388-13.395-13.772-13.395h-13.639v-24.723l45.302-45.344c3.063-3.065 3.063-8.052 0-11.117-2.972-2.97-8.147-2.97-11.119,0l-1.056,1.054-.025-.008-33.103,33.103 .002-52.948c0-4.355-3.539-7.894-7.888-7.894s-7.89,3.539-7.89,7.894v52.944l-34.181-34.144c-2.979-2.97-8.151-2.97-11.119,0-3.066,3.062-3.066,8.052 0,11.117l1.549,1.556-.017.017 43.768,43.772v24.723h-13.587c-7.216,0-13.278,5.716-13.764,12.859l-.01.564-2.151.191-.562,1.721-.017-.004-17.3-5.633-29.123-57.088c-1.915-3.758-6.778-5.359-10.572-3.439-1.871.958-3.26,2.581-3.908,4.576-.649,1.995-.481,4.131.473,5.994l.805,1.576-.025.013 21.127,41.474-50.353-16.36c-4.099-1.336-8.625,1.021-9.943,5.069-1.342,4.132.933,8.591 5.067,9.939l50.351,16.364-43.025,21.953c-3.862,1.975-5.405,6.712-3.443,10.582 1.918,3.75 6.774,5.359 10.576,3.426l1.858-.946 .013.029 55.244-28.146 24.885,8.076v24.006c0,2.929.929,5.737 2.694,8.122l.908,1.128-.039.054 .031.045-10.375,14.27-63.297,10.051c-2.076.328-3.899,1.448-5.134,3.148-1.234,1.701-1.732,3.775-1.402,5.854 .67,4.235 4.596,7.218 8.993,6.533l1.811-.282 .011.017 45.902-7.268-31.128,42.834c-1.234,1.696-1.736,3.787-1.409,5.874 .334,2.078 1.456,3.907 3.163,5.152 3.404,2.472 8.558,1.63 11.018-1.751l31.12-42.834 7.585,47.708c.672,4.256 4.619,7.243 8.993,6.542 4.279-.688 7.209-4.721 6.536-8.993l-.28-1.78 .027-.004-9.747-61.522 13.878-19.103h30.823l13.878,19.111-9.714,61.299zm-47.352-81.96m41.293-10.246h-26.974c-5.52,0-10.006-4.497-10.006-10.022v-26.972c0-5.517 4.486-10.001 10.006-10.001h26.974c5.517,0 10.003,4.484 10.003,10.001v26.972c0,5.525-4.486,10.022-10.003,10.022zm-26.974-42.855c-3.231,0-5.861,2.634-5.861,5.861v26.972c0,3.24 2.63,5.87 5.861,5.87h26.974c3.231,0 5.859-2.63 5.859-5.87v-26.972c0-3.228-2.628-5.861-5.859-5.861h-26.974z" fill="#fff"/>
 <path d="m520.057,483.534c3.449-5.863 1.498-13.414-4.366-16.871l-51.113-30.054 51.843-13.442-.012-.021c.01-.005.011-.004.011-.004 6.561-1.708 10.519-8.42 8.81-14.983-1.703-6.571-8.408-10.499-14.978-8.808l-.005-.039-75.691,19.627-18.442-10.849c7.687-7.214 8.311-19.371 1.276-27.311l-9.484-10.709 20.174-17.869 78.066,4.731-.005-.029c6.776.409 12.603-4.751 13.011-11.524s-4.748-12.591-11.52-13.006l-.003.004-.007-.032-53.459-3.245 44.389-39.315c5.093-4.51 5.567-12.301 1.06-17.389-4.514-5.097-12.3-5.562-17.392-1.051l-44.386,39.311 3.229-53.459-.026-.006 .003-.005c.404-6.77-4.753-12.592-11.52-13.006s-12.596,4.744-13.014,11.522l-.024-.004-4.735,78.064-20.175,17.869-9.444-10.663c-7.155-8.079-19.619-8.843-27.7-1.686 .13-.116.282-.215.418-.325l-8.563-19.679 28.621-72.773-.038-.01c2.479-6.315-.607-13.453-6.935-15.933-6.308-2.487-13.447.625-15.922,6.933l-.004.011-.031-.013-19.611,49.84-23.66-54.369c-2.723-6.237-9.983-9.088-16.222-6.373-6.243,2.724-9.092,9.975-6.38,16.218l23.668,54.369-49.831-19.607-.013.031-.006-.008c-6.314-2.477-13.443.623-15.937,6.94-2.479,6.322.629,13.438 6.946,15.927l-.009.028 72.766,28.628 11.751,26.986-20.825,18.446c-3.239,2.868-5.275,6.595-6.122,10.546l-.004-.005-18.788,1.814-60.376-49.711-.027.03c-5.236-4.309-12.982-3.562-17.282,1.673-4.316,5.241-3.563,12.976 1.666,17.295l.001.002-.019.024 41.344,34.052-59.02,5.71c-6.772.656-11.722,6.674-11.063,13.446 .656,6.777 6.671,11.736 13.44,11.083l59.012-5.713-34.039,41.343 .029.018c-4.318,5.245-3.564,12.982 1.675,17.297 5.241,4.308 12.972,3.563 17.285-1.672l.029.018 49.716-60.366 26.697-2.587 23.548,26.585-5.795,26.203-65.934,42.041 .016.031c-5.717,3.652-7.395,11.244-3.742,16.963s11.237,7.402 16.959,3.757l.008-.007 .016.033 45.153-28.811-12.801,57.902c-1.466,6.641 2.73,13.211 9.375,14.678 6.644,1.475 13.215-2.715 14.686-9.355l12.802-57.894 28.803,45.146 .021-.014 .001.003c3.657,5.721 11.253,7.396 16.981,3.75 5.708-3.646 7.378-11.237 3.741-16.961l.027-.023-42.051-65.924 4.063-18.386-.003-.003c4.043-.364 8.01-1.938 11.259-4.815l20.838-18.456 25.321,14.894 19.614,75.697 .033-.009c1.702,6.565 8.404,10.511 14.973,8.806 6.573-1.703 10.509-8.411 8.818-14.978l.032-.002-13.452-51.849 51.111,30.062c5.865,3.447 13.416,1.495 16.871-4.376zm-211.921-96.233c.005.007.002.021 0,.033 .002-.012.005-.025 0-.033zm.478,6.707c.019.077.043.159.072.239-.029-.08-.053-.162-.072-.239zm.618,2.008c.062.193.139.374.213.549-.074-.175-.151-.357-.213-.549zm.849,1.972c.103.216.212.416.322.621-.11-.206-.219-.405-.322-.621zm1.125,1.959c.122.182.226.368.354.547-.128-.179-.232-.365-.354-.547zm45.181,21.623-22.117-24.973c-3.579-4.04-3.201-10.276.847-13.86l24.972-22.118c4.036-3.575 10.267-3.193 13.846.847l22.118,24.973c3.575,4.037 3.203,10.271-.833,13.846l-24.972,22.118c-4.048,3.583-10.286,3.203-13.861-.833zm-2.981,24.629c.164.102.339.196.518.282-.179-.085-.354-.18-.518-.282zm-3.636-2.565c.16.148.338.28.507.425-.17-.145-.347-.277-.507-.425zm1.733,1.377c.179.14.374.267.572.392-.198-.126-.391-.251-.572-.392zm4.333,2.33c-.078-.035-.164-.07-.25-.105l.25.105z" fill="url(#a)"/>
 <path d="m266.103,523.923c-.513-.578-.983-1.203-1.41-1.878-3.925-6.155-2.73-14.132 2.464-18.913l-.129-.192 2.175-1.429 65.043-41.476 5.272-23.884-21.808-24.624-24.346,2.351-50.443,61.262-.179-.108c-5.367,4.805-13.605,5.105-19.337.397-5.795-4.771-6.978-12.715-3.468-18.817l-.157-.139 1.576-1.967 30.112-36.575-52.86,5.122c-7.853.76-15.477-5.474-16.244-13.382-.388-3.949.79-7.82 3.318-10.892 2.523-3.064 6.096-4.971 10.055-5.353l52.861-5.12-38.585-31.764 .179-.21c-4.703-5.479-4.783-13.463-.164-19.064 2.516-3.064 6.078-4.961 10.023-5.344 3.078-.299 6.106.349 8.742,1.849l.141-.176 2.014,1.618 59.55,49.035 15.963-1.547c1.184-3.91 3.384-7.359 6.449-10.074l19.432-17.211-10.581-24.311-74.186-29.18 .093-.24c-6.044-3.7-8.656-11.501-6.072-18.091 2.757-6.985 10.239-10.725 17.339-8.992l.088-.118 1.849.697 44.079,17.337-21.197-48.693c-3.278-7.516.174-16.307 7.699-19.59 5.93-2.58 12.8-1.061 17.085,3.777 1.034,1.167 1.879,2.488 2.504,3.926l21.203,48.693 18.318-46.568 .244.114c1.576-2.561 3.886-4.573 6.694-5.795 3.642-1.592 7.673-1.661 11.365-.208 6.623,2.59 10.516,10.039 9.119,16.796l.196.089-.901,2.378-28.232,71.787 6.87,15.788c8.982-5.427 20.993-3.813 28.131,4.247l7.744,8.743 17.454-15.46 4.836-79.716 .281.033c1.688-6.81 8.062-11.684 15.312-11.242 7.255.445 13.401,6.627 13.904,13.765l.128.041-.08,1.921-2.865,47.285 39.754-35.208c6.144-5.442 15.566-4.87 21.008,1.274s4.872,15.566-1.272,21.008l-39.753,35.209 49.465,2.999 .021.197c6.896,1.463 12.15,8.255 11.725,15.42-.446,7.255-6.047,12.987-13.015,13.843l.006.246-2.71-.136-77.008-4.656-17.455,15.459 7.783,8.789c7.127,8.046 7.273,20.143.82,28.402l14.803,8.714 77.131-19.991 .068.233c6.877-.561 13.799,4.19 15.574,11.083 1.861,7.162-1.867,14.491-8.458,17.346l.021.187-2.206.595-45.851,11.892 45.771,26.926c1.354.795 2.56,1.792 3.594,2.96 4.286,4.838 4.959,11.836 1.681,17.411-4.164,7.074-13.3,9.45-20.371,5.288l-45.776-26.932 12.575,48.493-.284.059c.499,7-4.05,13.594-11.085,15.417-5.432,1.403-11.131-.318-14.855-4.524-1-1.129-1.822-2.422-2.433-3.813l-.197.037-.645-2.336-19.345-74.672-22.799-13.407-19.448,17.224c-3.076,2.726-6.793,4.503-10.844,5.198l-3.443,15.597 42.837,67.168-.207.138c2.732,6.543.455,14.316-5.711,18.25-6.195,3.952-14.229,2.837-19.096-2.657l-.086-.104-.158.06-1.191-1.814-25.479-39.933-11.468,51.848c-1.769,8.014-9.729,13.085-17.74,11.314-7.752-1.711-13.021-10.035-11.323-17.743l11.468-51.857-42.071,26.844-.131-.209c-5.793,2.445-12.557,1.005-16.851-3.844zm7.962-19.43-2.091,1.37c-4.516,2.886-5.843,8.909-2.963,13.43 2.913,4.597 8.947,5.822 13.429,2.966l50.393-32.108-14.14,63.941c-1.116,5.06 2.34,10.51 7.415,11.637 5.256,1.161 10.478-2.168 11.641-7.424l14.143-63.929 32.147,50.347c2.955,4.698 8.949,5.839 13.433,2.979 4.518-2.893 5.842-8.904 2.965-13.43l-1.355-2.125 .024-.019-41.264-64.695 4.701-21.264 1.872-.162c3.688-.332 7.063-1.773 9.782-4.182l22.233-19.691 27.835,16.377 19.921,76.716c.384,1.502 1.103,2.848 2.122,4 2.439,2.754 6.168,3.892 9.724,2.97 5.188-1.339 8.318-6.663 6.974-11.857l-.677-2.622 .036-.005-14.319-55.219 56.441,33.207c4.641,2.724 10.625,1.171 13.355-3.468 2.665-4.541 1.138-10.663-3.457-13.358l-56.435-33.2 57.816-15.018c5.196-1.349 8.323-6.664 6.982-11.861-1.319-5.103-6.81-8.268-11.852-6.966l-2.462.633-.012-.03-74.25,19.25-22.31-13.125 2.495-2.346c6.668-6.251 7.163-16.896 1.107-23.733l-11.184-12.627 22.89-20.272 79.129,4.76c5.349.321 9.965-3.769 10.292-9.116 .313-5.188-3.931-9.979-9.117-10.295l-1.842-.114-.013-.029-57.791-3.505 49.022-43.415c4.031-3.571 4.405-9.75.841-13.775-3.566-4.028-9.747-4.404-13.778-.831l-49.018,43.413 3.583-59.644c.307-5.192-3.936-9.981-9.118-10.294-5.349-.329-9.969,3.764-10.292,9.116l-.171,2.71-.028-.002-4.636,76.415-22.888,20.272-11.144-12.58c-5.917-6.68-16.18-7.605-23.191-2.198l-.53.454-1.941-1.835-2.054.892-.011-.02-8.97-20.636 28.972-73.775c1.91-4.854-.597-10.669-5.484-12.608-2.422-.945-5.062-.902-7.441.135-2.378,1.034-4.219,2.942-5.16,5.353l-.8,2.038-.031-.014-21.074,53.569-26.143-60.034c-2.124-4.89-8.019-7.147-12.847-5.05-4.926,2.146-7.188,7.909-5.047,12.842l26.137,60.034-55.604-21.832c-4.996-1.957-10.646.499-12.621,5.489-1.899,4.852.593,10.666 5.5,12.601l2.399.946-.017.035 71.358,28.066 12.93,29.661-22.226,19.686c-2.713,2.402-4.55,5.565-5.312,9.155l-.3,1.766-.082.008-.017.065-21.718,2.098-61.21-50.36c-2.005-1.655-4.537-2.424-7.125-2.171s-4.914,1.491-6.568,3.501c-3.371,4.093-2.913,10.173 1.326,13.684l1.747,1.443-.008.025 44.368,36.537-65.181,6.305c-2.583.249-4.93,1.498-6.593,3.512-1.65,2.013-2.423,4.552-2.176,7.153 .502,5.179 5.508,9.26 10.655,8.765l65.175-6.312-37.95,46.143c-3.389,4.112-2.918,10.216 1.317,13.691 4.147,3.396 10.282,2.802 13.685-1.325l1.419-1.719 .026.022 48.966-59.471 29.065-2.817 25.275,28.536-6.313,28.521-64.711,41.273zm80.398-81.219-22.118-24.973c-4.526-5.11-4.042-12.951 1.073-17.481l24.973-22.118c5.106-4.523 12.938-4.047 17.463,1.063l22.119,24.973c4.524,5.108 4.051,12.938-1.056,17.463l-24.973,22.118c-5.115,4.531-12.957,4.065-17.481-1.045zm17.558-60.113c-2.65-2.992-7.245-3.266-10.232-.621l-24.973,22.118c-2.999,2.656-3.276,7.248-.627,10.239l22.118,24.973c2.649,2.991 7.239,3.268 10.239.612l24.972-22.118c2.986-2.646 3.271-7.24.622-10.231l-22.119-24.972z" fill="#fff"/>
</svg>
